<svg width="7" height="14" viewBox="0 0 7 14" fill="none" xmlns="http://www.w3.org/2000/svg">
<g id="world">
<path id="Shape" fill-rule="evenodd" clip-rule="evenodd" d="M3.1123 4.42651C2.65112 2.21124 1.26318 0.545288 0.421143 0.195801V4.53882C0.928955 4.53259 1.53345 4.51447 2.0957 4.48816C2.46606 4.47083 2.81812 4.44995 3.1123 4.42651ZM6.02563 3.96307C5.87207 4.01025 5.25 4.18372 4.01978 4.32941C3.74219 2.85291 3.24121 1.59479 2.58765 0.686462C4.08569 1.33575 5.30396 2.50458 6.02563 3.96307ZM2.16431 5.46204C2.55005 5.44324 2.91943 5.42053 3.22729 5.39496C3.29199 5.91315 3.30811 6.44958 3.30811 7.00116C3.30811 7.70959 3.28296 8.39679 3.17847 9.04602C2.40674 8.9837 1.26318 8.93884 0.421143 8.92871V5.51733C0.932373 5.51068 1.56812 5.49103 2.16431 5.46204ZM0.421143 9.90723V13.8068C1.26318 13.4808 2.51001 12.0077 3.00977 10.0125C2.28833 9.95691 1.26318 9.91736 0.421143 9.90723ZM2.58765 13.3163C3.17651 12.4978 3.64551 11.3992 3.93506 10.1088C4.90283 10.2202 5.51245 10.3499 5.81982 10.4274C5.07983 11.7117 3.94678 12.7245 2.58765 13.3163ZM4.16797 5.29669C4.31567 6.57568 4.2959 7.86847 4.10913 9.14233C4.7168 9.21338 5.19092 9.29211 5.5459 9.36267C5.8894 9.43091 6.12109 9.49146 6.25391 9.53027C6.56567 8.74652 6.74243 7.89459 6.74243 7.00116C6.74194 6.11798 6.57031 5.24329 6.23706 4.42542L6.39526 4.8717C6.35083 4.88745 5.68115 5.11511 4.16797 5.29669Z" fill="white"/>
</g>
</svg>
